<svg xmlns="http://www.w3.org/2000/svg" viewBox="0 0 479.99996 239.99998" height="192" width="384"><path d="M0 0h480v240H0z" fill="#fff"/><g stroke-width=".153"><path d="M343.796 83.882h96.471v72.236h-96.471z" fill="#34dcff"/><path d="M343.237 83.307v73.386h97.589V83.307zm39.24 7.688h19.1v19.45h19.459v19.102h-19.458v19.458h-19.102v-19.458h-19.45v-19.102h19.45zm-33.011 25.198a3.804 3.804 0 1 1 .007 7.607 3.804 3.804 0 0 1-.007-7.607z" fill="#19b1fa" stroke-width=".219"/></g><path d="M302.205 134.869q3.234 0 4.575-.631 1.341-.631 1.341-2.445 0-1.42-1.735-2.446-1.736-1.104-5.285-2.445-2.761-1.025-5.048-2.13-2.21-1.104-3.787-2.603-1.577-1.577-2.445-3.707-.868-2.13-.868-5.127 0-5.837 4.339-9.23 4.338-3.391 11.91-3.391 3.787 0 7.257.71 3.471.631 5.522 1.42l-2.05 9.15q-2.052-.71-4.497-1.262-2.366-.552-5.364-.552-5.521 0-5.521 3.076 0 .71.236 1.262.237.552.947 1.104.71.473 1.893 1.105 1.262.552 3.155 1.262 3.865 1.42 6.39 2.84 2.524 1.34 3.943 2.997 1.499 1.577 2.051 3.55.631 1.971.631 4.574 0 6.153-4.654 9.308-4.575 3.155-13.015 3.155-5.521 0-9.229-.946-3.628-.947-5.048-1.578l1.972-9.544q2.997 1.183 6.153 1.893 3.155.63 6.231.63zm-23.02 7.02q-2.998.868-7.73 1.578-4.733.788-9.94.788-5.284 0-8.834-1.42-3.47-1.42-5.521-3.943-2.051-2.603-2.919-6.153-.868-3.55-.868-7.809v-23.112h11.753v21.692q0 5.68 1.5 8.204 1.498 2.524 5.6 2.524 1.262 0 2.681-.08 1.42-.157 2.525-.315v-32.025h11.753zm-43.81 2.209q-5.128-.08-8.362-1.105-3.155-1.025-5.048-2.84-1.814-1.892-2.524-4.495-.631-2.682-.631-5.995V83.992l11.753-1.894v45.198q0 1.578.236 2.84.237 1.262.868 2.13.71.867 1.972 1.42 1.262.552 3.392.71zm-37.588-21.219q0-5.443-2.445-8.677-2.445-3.313-7.257-3.313-1.578 0-2.919.158-1.34.08-2.208.237v21.218q1.104.71 2.84 1.184 1.814.473 3.628.473 8.361 0 8.361-11.28zm11.99-.315q0 4.811-1.183 8.755-1.184 3.944-3.471 6.784-2.288 2.84-5.68 4.417-3.391 1.578-7.808 1.578-2.446 0-4.575-.474-2.13-.473-4.102-1.34v15.618h-11.753v-54.664q1.577-.473 3.628-.868 2.051-.473 4.26-.788 2.287-.316 4.575-.474 2.366-.236 4.496-.236 5.127 0 9.15 1.577 4.023 1.5 6.784 4.339 2.76 2.76 4.18 6.783 1.499 4.023 1.499 8.993zm-44.873-20.746q-3.55 11.99-7.414 22.481-3.866 10.49-8.44 20.35-1.657 3.55-3.313 5.996-1.657 2.524-3.629 4.101-1.972 1.657-4.496 2.367-2.445.789-5.758.789-2.761 0-5.127-.553-2.288-.473-3.787-1.104l2.051-9.386q1.814.63 3.234.867t2.998.237q3.155 0 4.811-1.736 1.736-1.656 2.919-4.653-4.023-7.888-8.046-17.67-4.023-9.86-7.572-22.086h12.463q.789 3.077 1.814 6.705 1.104 3.55 2.287 7.257 1.184 3.628 2.367 7.1 1.262 3.47 2.366 6.31 1.026-2.84 2.13-6.31 1.104-3.472 2.13-7.1 1.104-3.707 2.05-7.257 1.026-3.628 1.815-6.705zM80.031 122.88q0-5.521 1.657-9.623 1.735-4.18 4.496-6.942 2.76-2.76 6.31-4.18 3.629-1.42 7.415-1.42 8.834 0 13.961 5.443 5.128 5.363 5.128 15.854 0 1.026-.08 2.288-.078 1.183-.157 2.13H92.1q.394 3.628 3.392 5.758 2.997 2.13 8.045 2.13 3.234 0 6.31-.552 3.156-.632 5.128-1.5l1.577 9.545q-.946.473-2.524.947-1.577.473-3.55.789-1.892.394-4.101.63-2.209.237-4.417.237-5.6 0-9.781-1.656-4.102-1.657-6.863-4.496-2.682-2.919-4.023-6.863-1.262-3.944-1.262-8.519zm27.608-4.496q-.079-1.499-.552-2.919-.395-1.42-1.341-2.524-.868-1.104-2.288-1.814-1.34-.71-3.391-.71-1.972 0-3.392.71-1.42.631-2.367 1.735-.946 1.105-1.498 2.603-.474 1.42-.71 2.919zm-56.712-1.578q1.735-1.893 3.55-3.944 1.893-2.05 3.628-4.022 1.735-2.051 3.234-3.866 1.578-1.814 2.682-3.155h13.962q-4.18 4.812-8.204 9.23-3.944 4.338-8.676 8.991 2.366 2.13 4.89 5.128 2.524 2.918 4.89 6.073 2.367 3.156 4.339 6.31 1.972 3.156 3.313 5.759H65.047q-1.263-2.05-2.919-4.496-1.578-2.524-3.392-4.97-1.814-2.524-3.865-4.811-1.972-2.288-3.944-3.865v18.142H39.174V83.992l11.753-1.894z"/></svg>
