<?xml version="1.0" encoding="UTF-8" standalone="no"?>
<svg
   xmlns:dc="http://purl.org/dc/elements/1.1/"
   xmlns:cc="http://creativecommons.org/ns#"
   xmlns:rdf="http://www.w3.org/1999/02/22-rdf-syntax-ns#"
   xmlns:svg="http://www.w3.org/2000/svg"
   xmlns="http://www.w3.org/2000/svg"
   xmlns:sodipodi="http://sodipodi.sourceforge.net/DTD/sodipodi-0.dtd"
   xmlns:inkscape="http://www.inkscape.org/namespaces/inkscape"
   viewBox="0 0 426.652 100.804"
   height="80.643204"
   width="341.32162"
   version="1.1"
   id="svg881"
   sodipodi:docname="keyplus_logo.svg"
   inkscape:version="0.92.2 (5c3e80d, 2017-08-06)">
  <metadata
     id="metadata887">
    <rdf:RDF>
      <cc:Work
         rdf:about="">
        <dc:format>image/svg+xml</dc:format>
        <dc:type
           rdf:resource="http://purl.org/dc/dcmitype/StillImage" />
        <dc:title></dc:title>
      </cc:Work>
    </rdf:RDF>
  </metadata>
  <defs
     id="defs885" />
  <sodipodi:namedview
     pagecolor="#ffffff"
     bordercolor="#666666"
     borderopacity="1"
     objecttolerance="10"
     gridtolerance="10"
     guidetolerance="10"
     inkscape:pageopacity="0"
     inkscape:pageshadow="2"
     inkscape:window-width="1920"
     inkscape:window-height="1046"
     id="namedview883"
     showgrid="false"
     inkscape:zoom="4.9939416"
     inkscape:cx="199.11032"
     inkscape:cy="14.976774"
     inkscape:window-x="0"
     inkscape:window-y="34"
     inkscape:window-maximized="1"
     inkscape:current-layer="svg881"
     fit-margin-top="10"
     fit-margin-left="10"
     fit-margin-right="10"
     fit-margin-bottom="10" />
  <g
     id="g877"
     style="stroke-width:0.153"
     transform="translate(-26.674001,-69.598001)">
    <path
       d="m 343.796,83.882 h 96.471 v 72.236 h -96.471 z"
       id="path873"
       inkscape:connector-curvature="0"
       style="fill:#34dcff" />
    <path
       d="m 343.237,83.307 v 73.386 h 97.589 V 83.307 Z m 39.24,7.688 h 19.1 v 19.45 h 19.459 v 19.102 h -19.458 v 19.458 h -19.102 v -19.458 h -19.45 v -19.102 h 19.45 z m -33.011,25.198 a 3.804,3.804 0 1 1 0.007,7.607 3.804,3.804 0 0 1 -0.007,-7.607 z"
       id="path875"
       inkscape:connector-curvature="0"
       style="fill:#19b1fa;stroke-width:0.219" />
  </g>
  <path
     d="m 275.531,65.270999 q 3.234,0 4.575,-0.631 1.341,-0.631 1.341,-2.445 0,-1.42 -1.735,-2.446 -1.736,-1.104 -5.285,-2.445 -2.761,-1.025 -5.048,-2.13 -2.21,-1.104 -3.787,-2.603 -1.577,-1.577 -2.445,-3.707 -0.868,-2.13 -0.868,-5.127 0,-5.837 4.339,-9.23 4.338,-3.391 11.91,-3.391 3.787,0 7.257,0.71 3.471,0.631 5.522,1.42 l -2.05,9.15 q -2.052,-0.71 -4.497,-1.262 -2.366,-0.552 -5.364,-0.552 -5.521,0 -5.521,3.076 0,0.71 0.236,1.262 0.237,0.552 0.947,1.104 0.71,0.473 1.893,1.105 1.262,0.552 3.155,1.262 3.865,1.42 6.39,2.84 2.524,1.34 3.943,2.997 1.499,1.577 2.051,3.55 0.631,1.971 0.631,4.574 0,6.153 -4.654,9.308 -4.575,3.155 -13.015,3.155 -5.521,0 -9.229,-0.946 -3.628,-0.947 -5.048,-1.578 l 1.972,-9.544 q 2.997,1.183 6.153,1.893 3.155,0.63 6.231,0.63 z m -23.02,7.02 q -2.998,0.868 -7.73,1.578 -4.733,0.788 -9.94,0.788 -5.284,0 -8.834,-1.42 -3.47,-1.42 -5.521,-3.943 -2.051,-2.603 -2.919,-6.153 -0.868,-3.55 -0.868,-7.809 v -23.112 h 11.753 v 21.692 q 0,5.68 1.5,8.204 1.498,2.524 5.6,2.524 1.262,0 2.681,-0.08 1.42,-0.157 2.525,-0.315 v -32.025 h 11.753 z m -43.81,2.209 q -5.128,-0.08 -8.362,-1.105 -3.155,-1.025 -5.048,-2.84 -1.814,-1.892 -2.524,-4.495 -0.631,-2.682 -0.631,-5.995 v -45.671 l 11.753,-1.894 v 45.198 q 0,1.578 0.236,2.84 0.237,1.262 0.868,2.13 0.71,0.867 1.972,1.42 1.262,0.552 3.392,0.71 z m -37.588,-21.219 q 0,-5.443 -2.445,-8.677 -2.445,-3.313 -7.257,-3.313 -1.578,0 -2.919,0.158 -1.34,0.08 -2.208,0.237 v 21.218 q 1.104,0.71 2.84,1.184 1.814,0.473 3.628,0.473 8.361,0 8.361,-11.28 z m 11.99,-0.315 q 0,4.811 -1.183,8.755 -1.184,3.944 -3.471,6.784 -2.288,2.84 -5.68,4.417 -3.391,1.578 -7.808,1.578 -2.446,0 -4.575,-0.474 -2.13,-0.473 -4.102,-1.34 v 15.618 h -11.753 v -54.664 q 1.577,-0.473 3.628,-0.868 2.051,-0.473 4.26,-0.788 2.287,-0.316 4.575,-0.474 2.366,-0.236 4.496,-0.236 5.127,0 9.15,1.577 4.023,1.5 6.784,4.339 2.76,2.76 4.18,6.783 1.499,4.023 1.499,8.993 z m -44.873,-20.746 q -3.55,11.99 -7.414,22.481 -3.866,10.49 -8.44,20.35 -1.657,3.55 -3.313,5.996 -1.657,2.524 -3.629,4.101 -1.972,1.657 -4.496,2.367 -2.445,0.789 -5.758,0.789 -2.761,0 -5.127,-0.553 -2.288001,-0.473 -3.787001,-1.104 l 2.051,-9.386 q 1.814001,0.63 3.234001,0.867 1.42,0.237 2.998,0.237 3.155,0 4.811,-1.736 1.736,-1.656 2.919,-4.653 -4.023,-7.888 -8.046,-17.67 -4.023,-9.86 -7.572001,-22.086 H 109.124 q 0.789,3.077 1.814,6.705 1.104,3.55 2.287,7.257 1.184,3.628 2.367,7.1 1.262,3.47 2.366,6.31 1.026,-2.84 2.13,-6.31 1.104,-3.472 2.13,-7.1 1.104,-3.707 2.05,-7.257 1.026,-3.628 1.815,-6.705 z m -84.873001,21.062 q 0,-5.521 1.657,-9.623 1.735,-4.18 4.496,-6.942 2.76,-2.76 6.31,-4.18 3.629,-1.42 7.415,-1.42 8.834,0 13.961,5.443 5.128,5.363 5.128,15.854 0,1.026 -0.08,2.288 -0.078,1.183 -0.157,2.13 h -26.661 q 0.394,3.628 3.392,5.758 2.997,2.13 8.045,2.13 3.234,0 6.31,-0.552 3.156,-0.632 5.128,-1.5 l 1.577,9.545 q -0.946,0.473 -2.524,0.947 -1.577,0.473 -3.55,0.789 -1.892,0.394 -4.101,0.63 -2.209,0.237 -4.417,0.237 -5.6,0 -9.781,-1.656 -4.102,-1.657 -6.863,-4.496 -2.682,-2.919 -4.023,-6.863 -1.262,-3.944 -1.262,-8.519 z m 27.608,-4.496 q -0.079,-1.499 -0.552,-2.919 -0.395,-1.42 -1.341,-2.524 -0.868,-1.104 -2.288,-1.814 -1.34,-0.71 -3.391,-0.71 -1.972,0 -3.392,0.71 -1.42,0.631 -2.367,1.735 -0.946,1.105 -1.498,2.603 -0.474,1.42 -0.71,2.919 z m -56.712,-1.578 q 1.735,-1.893 3.55,-3.944 1.893,-2.05 3.628,-4.022 1.735,-2.051 3.234,-3.866 1.578,-1.814 2.682,-3.155 h 13.962 q -4.18,4.812 -8.204,9.23 -3.944,4.338 -8.676,8.991 2.366,2.13 4.89,5.128 2.524,2.918 4.89,6.073 2.367,3.156 4.339,6.31 1.972,3.156 3.313,5.759 h -13.488 q -1.263,-2.05 -2.919,-4.496 -1.578,-2.524 -3.392,-4.97 -1.814,-2.524 -3.865,-4.811 -1.972,-2.288 -3.944,-3.865 v 18.142 h -11.753 v -59.318 l 11.753,-1.894 z"
     id="path879"
     inkscape:connector-curvature="0" />
</svg>
